<?xml version="1.0" encoding="UTF-8" standalone="no"?>
<!-- Generator: Adobe Illustrator 19.0.0, SVG Export Plug-In . SVG Version: 6.00 Build 0)  -->

<svg
   xmlns:dc="http://purl.org/dc/elements/1.1/"
   xmlns:cc="http://creativecommons.org/ns#"
   xmlns:rdf="http://www.w3.org/1999/02/22-rdf-syntax-ns#"
   xmlns:svg="http://www.w3.org/2000/svg"
   xmlns="http://www.w3.org/2000/svg"
   xmlns:sodipodi="http://sodipodi.sourceforge.net/DTD/sodipodi-0.dtd"
   xmlns:inkscape="http://www.inkscape.org/namespaces/inkscape"
   version="1.1"
   id="Capa_1"
   x="0px"
   y="0px"
   viewBox="0 0 488.85 488.85"
   style="enable-background:new 0 0 488.85 488.85;"
   xml:space="preserve"
   sodipodi:docname="eye.svg"
   inkscape:version="0.92.3 (2405546, 2018-03-11)"><metadata
   id="metadata41"><rdf:RDF><cc:Work
       rdf:about=""><dc:format>image/svg+xml</dc:format><dc:type
         rdf:resource="http://purl.org/dc/dcmitype/StillImage" /></cc:Work></rdf:RDF></metadata><defs
   id="defs39" /><sodipodi:namedview
   pagecolor="#ffffff"
   bordercolor="#666666"
   borderopacity="1"
   objecttolerance="10"
   gridtolerance="10"
   guidetolerance="10"
   inkscape:pageopacity="0"
   inkscape:pageshadow="2"
   inkscape:window-width="732"
   inkscape:window-height="480"
   id="namedview37"
   showgrid="false"
   inkscape:zoom="0.48276567"
   inkscape:cx="244.425"
   inkscape:cy="244.425"
   inkscape:window-x="0"
   inkscape:window-y="0"
   inkscape:window-maximized="0"
   inkscape:current-layer="Capa_1" />
<g
   id="g4"
   style="fill:#8D99AE">
	<path
   d="M244.425,98.725c-93.4,0-178.1,51.1-240.6,134.1c-5.1,6.8-5.1,16.3,0,23.1c62.5,83.1,147.2,134.2,240.6,134.2   s178.1-51.1,240.6-134.1c5.1-6.8,5.1-16.3,0-23.1C422.525,149.825,337.825,98.725,244.425,98.725z M251.125,347.025   c-62,3.9-113.2-47.2-109.3-109.3c3.2-51.2,44.7-92.7,95.9-95.9c62-3.9,113.2,47.2,109.3,109.3   C343.725,302.225,302.225,343.725,251.125,347.025z M248.025,299.625c-33.4,2.1-61-25.4-58.8-58.8c1.7-27.6,24.1-49.9,51.7-51.7   c33.4-2.1,61,25.4,58.8,58.8C297.925,275.625,275.525,297.925,248.025,299.625z"
   id="path2"
   style="fill:#8D99AE" />
</g>
<g
   id="g6"
   style="fill:#8D99AE">
</g>
<g
   id="g8"
   style="fill:#8D99AE">
</g>
<g
   id="g10"
   style="fill:#8D99AE">
</g>
<g
   id="g12"
   style="fill:#8D99AE">
</g>
<g
   id="g14"
   style="fill:#8D99AE">
</g>
<g
   id="g16"
   style="fill:#8D99AE">
</g>
<g
   id="g18"
   style="fill:#8D99AE">
</g>
<g
   id="g20"
   style="fill:#8D99AE">
</g>
<g
   id="g22"
   style="fill:#8D99AE">
</g>
<g
   id="g24"
   style="fill:#8D99AE">
</g>
<g
   id="g26"
   style="fill:#8D99AE">
</g>
<g
   id="g28"
   style="fill:#8D99AE">
</g>
<g
   id="g30"
   style="fill:#8D99AE">
</g>
<g
   id="g32"
   style="fill:#8D99AE">
</g>
<g
   id="g34"
   style="fill:#8D99AE">
</g>
</svg>