<?xml version="1.0" encoding="UTF-8" standalone="no"?>
<!-- Generator: Adobe Illustrator 16.0.0, SVG Export Plug-In . SVG Version: 6.00 Build 0)  -->

<svg
   xmlns:dc="http://purl.org/dc/elements/1.1/"
   xmlns:cc="http://creativecommons.org/ns#"
   xmlns:rdf="http://www.w3.org/1999/02/22-rdf-syntax-ns#"
   xmlns:svg="http://www.w3.org/2000/svg"
   xmlns="http://www.w3.org/2000/svg"
   xmlns:sodipodi="http://sodipodi.sourceforge.net/DTD/sodipodi-0.dtd"
   xmlns:inkscape="http://www.inkscape.org/namespaces/inkscape"
   version="1.1"
   id="Capa_1"
   x="0px"
   y="0px"
   width="401.998px"
   height="401.998px"
   viewBox="0 0 401.998 401.998"
   style="enable-background:new 0 0 401.998 401.998;"
   xml:space="preserve"
   sodipodi:docname="sort.svg"
   inkscape:version="0.92.3 (2405546, 2018-03-11)"><metadata
   id="metadata45"><rdf:RDF><cc:Work
       rdf:about=""><dc:format>image/svg+xml</dc:format><dc:type
         rdf:resource="http://purl.org/dc/dcmitype/StillImage" /></cc:Work></rdf:RDF></metadata><defs
   id="defs43" /><sodipodi:namedview
   pagecolor="#ffffff"
   bordercolor="#666666"
   borderopacity="1"
   objecttolerance="10"
   gridtolerance="10"
   guidetolerance="10"
   inkscape:pageopacity="0"
   inkscape:pageshadow="2"
   inkscape:window-width="732"
   inkscape:window-height="480"
   id="namedview41"
   showgrid="false"
   inkscape:zoom="0.58706762"
   inkscape:cx="200.99899"
   inkscape:cy="200.99899"
   inkscape:window-x="711"
   inkscape:window-y="137"
   inkscape:window-maximized="0"
   inkscape:current-layer="Capa_1" />
<g
   id="g8"
   style="fill:#8D99AE">
	<g
   id="g6"
   style="fill:#8D99AE">
		<path
   d="M73.092,164.452h255.813c4.949,0,9.233-1.807,12.848-5.424c3.613-3.616,5.427-7.898,5.427-12.847    c0-4.949-1.813-9.229-5.427-12.85L213.846,5.424C210.232,1.812,205.951,0,200.999,0s-9.233,1.812-12.85,5.424L60.242,133.331    c-3.617,3.617-5.424,7.901-5.424,12.85c0,4.948,1.807,9.231,5.424,12.847C63.863,162.645,68.144,164.452,73.092,164.452z"
   id="path2"
   style="fill:#8D99AE" />
		<path
   d="M328.905,237.549H73.092c-4.952,0-9.233,1.808-12.85,5.421c-3.617,3.617-5.424,7.898-5.424,12.847    c0,4.949,1.807,9.233,5.424,12.848L188.149,396.57c3.621,3.617,7.902,5.428,12.85,5.428s9.233-1.811,12.847-5.428l127.907-127.906    c3.613-3.614,5.427-7.898,5.427-12.848c0-4.948-1.813-9.229-5.427-12.847C338.139,239.353,333.854,237.549,328.905,237.549z"
   id="path4"
   style="fill:#8D99AE" />
	</g>
</g>
<g
   id="g10"
   style="fill:#8D99AE">
</g>
<g
   id="g12"
   style="fill:#8D99AE">
</g>
<g
   id="g14"
   style="fill:#8D99AE">
</g>
<g
   id="g16"
   style="fill:#8D99AE">
</g>
<g
   id="g18"
   style="fill:#8D99AE">
</g>
<g
   id="g20"
   style="fill:#8D99AE">
</g>
<g
   id="g22"
   style="fill:#8D99AE">
</g>
<g
   id="g24"
   style="fill:#8D99AE">
</g>
<g
   id="g26"
   style="fill:#8D99AE">
</g>
<g
   id="g28"
   style="fill:#8D99AE">
</g>
<g
   id="g30"
   style="fill:#8D99AE">
</g>
<g
   id="g32"
   style="fill:#8D99AE">
</g>
<g
   id="g34"
   style="fill:#8D99AE">
</g>
<g
   id="g36"
   style="fill:#8D99AE">
</g>
<g
   id="g38"
   style="fill:#8D99AE">
</g>
</svg>