<?xml version="1.0" encoding="iso-8859-1"?>
<!-- Generator: Adobe Illustrator 19.0.0, SVG Export Plug-In . SVG Version: 6.00 Build 0)  -->
<svg version="1.1" id="Layer_1" xmlns="http://www.w3.org/2000/svg" xmlns:xlink="http://www.w3.org/1999/xlink" x="0px" y="0px"
	 viewBox="0 0 512 512" style="enable-background:new 0 0 512 512;" xml:space="preserve">
<path style="fill:#F7B239;" d="M441.524,287.071C441.524,469.72,256.007,512,256.007,512S70.489,469.72,70.489,287.071
	c0-13.428,1.421-25.813,4.12-37.208c2.66-11.212,6.558-21.446,11.564-30.781c56.177-9.882,113.005-14.81,169.834-14.81
	s113.657,4.928,169.834,14.81c5.006,9.335,8.904,19.569,11.564,30.781C440.103,261.257,441.524,273.643,441.524,287.071z"/>
<path style="fill:#E09B2D;" d="M425.841,219.083c-56.177-9.882-101.272-55.134-158.101-55.134
	c-47.099,0-69.303,12.771-116.03,19.556c-0.593,0.086-13.748-15.732-14.341-15.644c-3.718,0.546-8.153,14.965-11.868,15.556
	c-1.022,0.162-10.578,1.227-11.599,1.392c-4.309,0.699-23.429,33.518-27.73,34.274c-5.006,9.335-8.904,19.569-11.564,30.781
	c-2.699,11.394-4.12,23.78-4.12,37.208C70.489,469.72,256.007,512,256.007,512s-119.982-45.133-119.982-240.109
	c0-11.274,0.576-21.85,1.669-31.775c39.291-4.773,78.801-7.161,118.313-7.161c56.829,0,113.657,4.928,169.834,14.81
	c3.859,0.678,7.705,1.382,11.564,2.099C434.745,238.651,430.847,228.417,425.841,219.083z"/>
<path style="fill:#995C0D;" d="M256.38,130.254c-0.154,0-0.308-0.004-0.462-0.01c-5.391-0.252-9.559-4.821-9.314-10.212l0,0
	c0.01-0.236,0.961-23.864-6.366-48.24c-9.207-30.629-26.8-48.246-52.29-52.361c-5.331-0.86-8.955-5.88-8.095-11.211
	c0.86-5.331,5.882-8.954,11.212-8.095c33.196,5.358,56.73,28.37,68.055,66.548c8.157,27.5,7.071,53.178,7.02,54.258
	C265.895,126.17,261.571,130.254,256.38,130.254z"/>
<path style="fill:#B27214;" d="M456.973,205.289c0,6.375-0.652,12.855-1.995,19.373c-9.687-2.008-19.412-3.872-29.138-5.58
	c-56.177-9.882-113.005-14.81-169.834-14.81s-113.657,4.928-169.834,14.81c-9.739,1.708-19.451,3.572-29.151,5.58
	c-11.368-54.912,27.117-107.595,82.877-113.618c77.18-8.344,155.024-8.344,232.203,0
	C421.252,116.35,456.973,157.913,456.973,205.289z"/>
<path style="fill:#995C0D;" d="M222.468,111.044c24.885-2.691,49.839-4.5,74.817-5.456c-52.491-2.008-105.091-0.198-157.386,5.456
	c-55.76,6.023-94.245,58.706-82.877,113.618c9.7-2.008,19.412-3.872,29.151-5.58c17.163-3.019,34.388-5.571,51.654-7.666
	C134.591,161.542,171.215,116.581,222.468,111.044z"/>
<g>
</g>
<g>
</g>
<g>
</g>
<g>
</g>
<g>
</g>
<g>
</g>
<g>
</g>
<g>
</g>
<g>
</g>
<g>
</g>
<g>
</g>
<g>
</g>
<g>
</g>
<g>
</g>
<g>
</g>
</svg>
