<svg xmlns="http://www.w3.org/2000/svg" xmlns:xlink="http://www.w3.org/1999/xlink" id="Capa_1" x="0" y="0" version="1.1" viewBox="0 0 228.638 228.638" xml:space="preserve" style="enable-background:new 0 0 228.638 228.638"><path d="M224.607,134.721c-6.826,1.143-9.986-12.916-22.57-12.445c0,0-11.146-21.523-13.176,1.912	c-7.48,1.697-20.388,9.179-33.633,7.813c-13.25-1.355-46.198-22.749-76.088-11.551c-3.453,0.971-7.091-0.018,0-6.682	c15.507-14.575,37.746-16.743,37.707-55.128c-0.05-44.556-43.144-57.057-63.515-57.064C32.226,1.565-0.06,8.991,0,38.341	c0.052,25.533,16.218,31.166,16.218,31.166s-0.941-24.112,16.389-24.112c17.322,0,18.339,12.223,17.673,16.299	c-3.076,23.091-29.9,50.261-28.544,75.059c0,0-0.68,20.045,15.626,35.663c6.228,5.621,6.057,33.634,6.117,36.357	c0.248,11.254,5.766,16.975,16.641,17.315c10.874,0.332,22.338,0.889,22.415-3.054c0.086-4.085-17.32-6.467-21.74-9.858	c-4.417-3.389-2.714-4.141,2.041-6.656c4.765-2.505,9.851-7.608,14.26-12.025c8.502,3.742,35.676,9.178,62.167-1.01	c3.396,8.147,19.188,29.065,22.74,31.793c3.618,2.776,23.433,2.716,22.074-3.062c-1.352-5.765-9.152-3.609-12.886-12.094	c-3.734-8.489-11.026-27.017,18.519-50.116c5.975-4.4,13.168-5.526,16.223-5.679c6.905-0.368,11.06-0.338,16.726-6.788	C228.336,141.08,231.741,133.698,224.607,134.721z"/></svg>