<?xml version="1.0" encoding="UTF-8" standalone="no"?>
<svg
   xmlns:dc="http://purl.org/dc/elements/1.1/"
   xmlns:cc="http://creativecommons.org/ns#"
   xmlns:rdf="http://www.w3.org/1999/02/22-rdf-syntax-ns#"
   xmlns:svg="http://www.w3.org/2000/svg"
   xmlns="http://www.w3.org/2000/svg"
   xmlns:sodipodi="http://sodipodi.sourceforge.net/DTD/sodipodi-0.dtd"
   xmlns:inkscape="http://www.inkscape.org/namespaces/inkscape"
   aria-hidden="true"
   data-prefix="fas"
   data-icon="eye"
   class="svg-inline--fa fa-eye fa-w-18"
   role="img"
   viewBox="0 0 576 512"
   version="1.1"
   id="svg4"
   sodipodi:docname="eye-solid-red.svg"
   inkscape:version="0.92.3 (2405546, 2018-03-11)">
  <metadata
     id="metadata10">
    <rdf:RDF>
      <cc:Work
         rdf:about="">
        <dc:format>image/svg+xml</dc:format>
        <dc:type
           rdf:resource="http://purl.org/dc/dcmitype/StillImage" />
        <dc:title></dc:title>
      </cc:Work>
    </rdf:RDF>
  </metadata>
  <defs
     id="defs8" />
  <sodipodi:namedview
     pagecolor="#ffffff"
     bordercolor="#666666"
     borderopacity="1"
     objecttolerance="10"
     gridtolerance="10"
     guidetolerance="10"
     inkscape:pageopacity="0"
     inkscape:pageshadow="2"
     inkscape:window-width="672"
     inkscape:window-height="480"
     id="namedview6"
     showgrid="false"
     inkscape:zoom="0.4609375"
     inkscape:cx="273.35593"
     inkscape:cy="256"
     inkscape:window-x="0"
     inkscape:window-y="0"
     inkscape:window-maximized="0"
     inkscape:current-layer="svg4" />
  <path
     fill="currentColor"
     d="M569.354 231.631C512.969 135.949 407.81 72 288 72 168.14 72 63.004 135.994 6.646 231.631a47.999 47.999 0 0 0 0 48.739C63.031 376.051 168.19 440 288 440c119.86 0 224.996-63.994 281.354-159.631a47.997 47.997 0 0 0 0-48.738zM288 392c-75.162 0-136-60.827-136-136 0-75.162 60.826-136 136-136 75.162 0 136 60.826 136 136 0 75.162-60.826 136-136 136zm104-136c0 57.438-46.562 104-104 104s-104-46.562-104-104c0-17.708 4.431-34.379 12.236-48.973l-.001.032c0 23.651 19.173 42.823 42.824 42.823s42.824-19.173 42.824-42.823c0-23.651-19.173-42.824-42.824-42.824l-.032.001C253.621 156.431 270.292 152 288 152c57.438 0 104 46.562 104 104z"
     id="path2"
     style="fill:#EF233C" />
</svg>
